<svg xmlns="http://www.w3.org/2000/svg" viewBox="0 0 600 800">
<defs>
  <linearGradient id="bg" x1="0" y1="0" x2="1" y2="1">
    <stop offset="0" stop-color="#071510"/>
    <stop offset=".62" stop-color="#071510"/>
    <stop offset="1" stop-color="#dc7b2f" stop-opacity=".38"/>
  </linearGradient>
  <linearGradient id="g" x1="0" y1="0" x2="0" y2="1">
    <stop offset="0" stop-color="#42e8b4"/>
    <stop offset="1" stop-color="#dc7b2f"/>
  </linearGradient>
  <radialGradient id="r">
    <stop offset="0" stop-color="#42e8b4" stop-opacity=".28"/>
    <stop offset="1" stop-color="#42e8b4" stop-opacity="0"/>
  </radialGradient>
</defs>
<rect width="600" height="800" fill="url(#bg)"/>
<circle cx="420" cy="225" r="230" fill="url(#r)"/>
<rect x="44" y="447" width="26" height="313" rx="13" fill="url(#g)" opacity="0.16"/><rect x="102" y="410" width="26" height="350" rx="13" fill="url(#g)" opacity="0.24"/><rect x="160" y="373" width="26" height="387" rx="13" fill="url(#g)" opacity="0.32"/><rect x="218" y="336" width="26" height="424" rx="13" fill="url(#g)" opacity="0.40"/><rect x="276" y="559" width="26" height="201" rx="13" fill="url(#g)" opacity="0.16"/><rect x="334" y="522" width="26" height="238" rx="13" fill="url(#g)" opacity="0.24"/><rect x="392" y="485" width="26" height="275" rx="13" fill="url(#g)" opacity="0.32"/><rect x="450" y="448" width="26" height="312" rx="13" fill="url(#g)" opacity="0.40"/><rect x="508" y="411" width="26" height="349" rx="13" fill="url(#g)" opacity="0.16"/>
<circle cx="410.0" cy="350.0" r="55" fill="none" stroke="#42e8b4" stroke-opacity="0.08" stroke-width="4"/><circle cx="364.0" cy="425.7" r="66" fill="none" stroke="#42e8b4" stroke-opacity="0.11" stroke-width="4"/><circle cx="268.4" cy="431.8" r="77" fill="none" stroke="#42e8b4" stroke-opacity="0.13" stroke-width="4"/><circle cx="211.0" cy="362.7" r="88" fill="none" stroke="#42e8b4" stroke-opacity="0.16" stroke-width="4"/><circle cx="244.6" cy="281.9" r="99" fill="none" stroke="#42e8b4" stroke-opacity="0.18" stroke-width="4"/>
<path d="M0 620 C120 540 180 700 300 620 S480 540 600 640 V800 H0Z" fill="#dc7b2f" opacity=".16"/>
<path d="M0 675 C100 610 220 760 340 655 S520 605 600 700" fill="none" stroke="#42e8b4" stroke-width="5" stroke-opacity=".45"/>
<g font-family="Arial,Helvetica,sans-serif">
  <text x="42" y="66" fill="#42e8b4" font-size="19" font-weight="700" letter-spacing="4">JAMI RESEARCH</text>
  <text x="42" y="720" fill="#ffffff" fill-opacity=".55" font-size="18" letter-spacing="3">PRIMAL TECH</text>
</g>
</svg>