<svg xmlns="http://www.w3.org/2000/svg" width="1024" height="1024" viewBox="0 0 1024 1024">
<defs><linearGradient id="g" x1="0" x2="1" y1="0" y2="1"><stop stop-color="#ffb000"/><stop offset="1" stop-color="#ff8a00"/></linearGradient><filter id="glow" x="-80%" y="-80%" width="260%" height="260%"><feGaussianBlur stdDeviation="9" result="b"/><feMerge><feMergeNode in="b"/><feMergeNode in="SourceGraphic"/></feMerge></filter></defs><rect x="120" y="620" width="58" height="58" rx="13" fill="url(#g)" filter="url(#glow)"/><rect x="120" y="710" width="58" height="58" rx="13" fill="url(#g)" filter="url(#glow)"/><rect x="210" y="710" width="58" height="58" rx="13" fill="url(#g)" filter="url(#glow)"/><rect x="300" y="170" width="58" height="58" rx="13" fill="url(#g)" filter="url(#glow)"/><rect x="300" y="260" width="58" height="58" rx="13" fill="url(#g)" filter="url(#glow)"/><rect x="300" y="350" width="58" height="58" rx="13" fill="url(#g)" filter="url(#glow)"/><rect x="300" y="440" width="58" height="58" rx="13" fill="url(#g)" filter="url(#glow)"/><rect x="300" y="530" width="58" height="58" rx="13" fill="url(#g)" filter="url(#glow)"/><rect x="300" y="620" width="58" height="58" rx="13" fill="url(#g)" filter="url(#glow)"/><rect x="300" y="710" width="58" height="58" rx="13" fill="url(#g)" filter="url(#glow)"/><rect x="480" y="170" width="58" height="58" rx="13" fill="url(#g)" filter="url(#glow)"/><rect x="480" y="260" width="58" height="58" rx="13" fill="url(#g)" filter="url(#glow)"/><rect x="480" y="350" width="58" height="58" rx="13" fill="url(#g)" filter="url(#glow)"/><rect x="480" y="440" width="58" height="58" rx="13" fill="url(#g)" filter="url(#glow)"/><rect x="480" y="530" width="58" height="58" rx="13" fill="url(#g)" filter="url(#glow)"/><rect x="480" y="620" width="58" height="58" rx="13" fill="url(#g)" filter="url(#glow)"/><rect x="480" y="710" width="58" height="58" rx="13" fill="url(#g)" filter="url(#glow)"/><rect x="570" y="260" width="58" height="58" rx="13" fill="url(#g)" filter="url(#glow)"/><rect x="660" y="350" width="58" height="58" rx="13" fill="url(#g)" filter="url(#glow)"/><rect x="750" y="260" width="58" height="58" rx="13" fill="url(#g)" filter="url(#glow)"/><rect x="840" y="170" width="58" height="58" rx="13" fill="url(#g)" filter="url(#glow)"/><rect x="840" y="260" width="58" height="58" rx="13" fill="url(#g)" filter="url(#glow)"/><rect x="840" y="350" width="58" height="58" rx="13" fill="url(#g)" filter="url(#glow)"/><rect x="840" y="440" width="58" height="58" rx="13" fill="url(#g)" filter="url(#glow)"/><rect x="840" y="530" width="58" height="58" rx="13" fill="url(#g)" filter="url(#glow)"/><rect x="840" y="620" width="58" height="58" rx="13" fill="url(#g)" filter="url(#glow)"/><rect x="840" y="710" width="58" height="58" rx="13" fill="url(#g)" filter="url(#glow)"/></svg>